<svg width="331" height="134" viewBox="0 0 331 134" fill="none" xmlns="http://www.w3.org/2000/svg">
<path d="M5.16005 45.08L8.76005 22.28H11.28C11.68 23 12.6 23.64 14.04 24.2C15.48 24.68 17.72 24.92 20.76 24.92H69.84C61.36 36.84 52.84 48.92 44.28 61.16C35.8 73.32 27.64 85.48 19.8 97.64C22.6 97.8 25.36 97.92 28.08 98C30.8 98.08 33.5601 98.12 36.3601 98.12C40.6 98.12 44.36 97.96 47.64 97.64C50.92 97.24 53.8401 96.44 56.4001 95.24C59.0401 93.96 61.3601 92.12 63.3601 89.72C65.4401 87.24 67.36 83.96 69.12 79.88H72.24L68.7601 101H4.80005C13.28 88.76 21.64 76.48 29.88 64.16C38.2 51.76 46.6001 39.64 55.0801 27.8H32.5201C29.5601 27.8 26.88 28.04 24.48 28.52C22.16 28.92 20 29.76 18 31.04C16.08 32.24 14.28 33.96 12.6 36.2C11 38.44 9.44005 41.4 7.92005 45.08H5.16005ZM123.706 59.24V38.12C123.706 35.88 123.586 34.04 123.346 32.6C123.106 31.16 122.586 30.08 121.786 29.36C120.986 28.56 119.866 28.04 118.426 27.8C116.986 27.48 115.066 27.32 112.666 27.32V24.92H143.506V27.32C141.506 27.32 139.866 27.48 138.586 27.8C137.386 28.04 136.426 28.56 135.706 29.36C135.066 30.08 134.626 31.16 134.386 32.6C134.146 34.04 134.026 35.88 134.026 38.12V87.8C134.026 90.12 134.146 92 134.386 93.44C134.626 94.8 135.066 95.88 135.706 96.68C136.426 97.4 137.386 97.92 138.586 98.24C139.866 98.48 141.506 98.6 143.506 98.6V101H112.066V98.6C114.626 98.6 116.666 98.48 118.186 98.24C119.706 97.92 120.866 97.4 121.666 96.68C122.546 95.88 123.106 94.8 123.346 93.44C123.586 92 123.706 90.12 123.706 87.8V63.32H75.7059V87.8C75.7059 90.12 75.8259 92 76.0659 93.44C76.3059 94.8 76.8259 95.88 77.6259 96.68C78.4259 97.4 79.5459 97.92 80.9859 98.24C82.5059 98.48 84.4659 98.6 86.8659 98.6V101H55.4259V98.6C57.5859 98.6 59.3059 98.48 60.5859 98.24C61.8659 97.92 62.8659 97.4 63.5859 96.68C64.3059 95.88 64.786 94.8 65.026 93.44C65.266 92 65.386 90.12 65.386 87.8V38.12C65.386 35.88 65.266 34.04 65.026 32.6C64.786 31.16 64.3059 30.08 63.5859 29.36C62.9459 28.56 62.026 28.04 60.826 27.8C59.626 27.48 58.026 27.32 56.026 27.32V24.92H86.5059V27.32C84.1859 27.32 82.3059 27.48 80.8659 27.8C79.4259 28.04 78.3059 28.56 77.5059 29.36C76.7859 30.08 76.3059 31.16 76.0659 32.6C75.8259 34.04 75.7059 35.88 75.7059 38.12V59.24H123.706ZM127.838 24.92H160.358V27.32C157.478 27.32 155.198 27.48 153.518 27.8C151.838 28.04 150.558 28.56 149.678 29.36C148.798 30.08 148.198 31.16 147.878 32.6C147.638 34.04 147.518 35.88 147.518 38.12V76.04C147.518 79.16 148.038 82 149.078 84.56C150.198 87.12 151.758 89.36 153.758 91.28C155.838 93.12 158.358 94.56 161.318 95.6C164.358 96.64 167.758 97.16 171.518 97.16C175.678 97.16 179.158 96.6 181.958 95.48C184.758 94.28 186.998 92.6 188.678 90.44C190.438 88.28 191.678 85.64 192.398 82.52C193.198 79.32 193.678 75.72 193.838 71.72L195.038 38.12C195.198 33.88 194.238 31.04 192.158 29.6C190.158 28.08 187.318 27.32 183.638 27.32V24.92H209.438V27.32C207.358 27.56 205.638 27.96 204.278 28.52C202.998 29 201.998 29.92 201.278 31.28C200.558 32.56 200.038 34.36 199.718 36.68C199.398 39 199.198 42.04 199.118 45.8L198.158 73.88C198.078 77.4 197.638 80.84 196.838 84.2C196.038 87.56 194.558 90.56 192.398 93.2C190.318 95.84 187.358 97.96 183.518 99.56C179.758 101.16 174.838 101.96 168.758 101.96C158.758 101.96 151.118 99.84 145.838 95.6C140.558 91.36 137.918 84.76 137.918 75.8V38.12C137.918 35.88 137.798 34.04 137.558 32.6C137.318 31.16 136.838 30.08 136.118 29.36C135.398 28.56 134.358 28.04 132.998 27.8C131.718 27.48 129.998 27.32 127.838 27.32V24.92ZM214.023 61.64C218.583 61.64 222.503 61.4 225.783 60.92C229.063 60.36 231.743 59.44 233.823 58.16C235.903 56.8 237.423 55.04 238.383 52.88C239.423 50.64 239.943 47.8 239.943 44.36C239.943 41.64 239.423 39.24 238.383 37.16C237.423 35.08 236.103 33.36 234.423 32C232.743 30.56 230.823 29.52 228.663 28.88C226.503 28.16 224.263 27.8 221.943 27.8C218.583 27.8 216.423 28.24 215.463 29.12C214.503 30 214.023 31.64 214.023 34.04V61.64ZM193.623 98.6C195.783 98.6 197.503 98.48 198.783 98.24C200.143 97.92 201.183 97.4 201.903 96.68C202.623 95.88 203.103 94.8 203.343 93.44C203.583 92 203.703 90.12 203.703 87.8C203.703 78.92 203.783 70.52 203.943 62.6C204.103 54.68 204.143 46.52 204.063 38.12C204.063 35.88 203.943 34.04 203.703 32.6C203.463 31.16 203.023 30.08 202.383 29.36C201.743 28.56 200.863 28.04 199.743 27.8C198.623 27.48 197.143 27.32 195.303 27.32V24.92H218.583C223.383 24.92 227.783 25.32 231.783 26.12C235.783 26.84 239.183 28 241.983 29.6C244.863 31.2 247.063 33.24 248.583 35.72C250.183 38.2 250.983 41.16 250.983 44.6C250.983 47.96 250.223 50.76 248.703 53C247.183 55.24 245.423 57.04 243.423 58.4C241.423 59.76 239.423 60.76 237.423 61.4C235.503 62.04 234.103 62.48 233.223 62.72L253.023 92C254.623 94.32 256.223 96 257.823 97.04C259.423 98.08 261.263 98.6 263.343 98.6V101H250.023C249.463 101 248.823 100.8 248.103 100.4C247.463 99.92 246.463 98.64 245.103 96.56L224.463 64.52H214.023V87.8C214.023 90.12 214.143 92 214.383 93.44C214.623 94.8 215.103 95.88 215.823 96.68C216.623 97.4 217.703 97.92 219.063 98.24C220.423 98.48 222.223 98.6 224.463 98.6V101H193.623V98.6ZM286.195 26.36C281.235 26.36 276.955 27.2 273.355 28.88C269.755 30.56 266.795 33 264.475 36.2C262.155 39.32 260.395 43.16 259.195 47.72C258.075 52.2 257.515 57.28 257.515 62.96C257.515 68.64 258.075 73.76 259.195 78.32C260.395 82.8 262.155 86.64 264.475 89.84C266.795 92.96 269.755 95.36 273.355 97.04C276.955 98.72 281.235 99.56 286.195 99.56C291.075 99.56 295.315 98.72 298.915 97.04C302.595 95.36 305.595 92.96 307.915 89.84C310.235 86.64 311.955 82.8 313.075 78.32C314.275 73.76 314.875 68.64 314.875 62.96C314.875 57.28 314.275 52.2 313.075 47.72C311.955 43.16 310.235 39.32 307.915 36.2C305.595 33 302.595 30.56 298.915 28.88C295.315 27.2 291.075 26.36 286.195 26.36ZM286.195 23.96C292.115 23.96 297.515 24.92 302.395 26.84C307.275 28.76 311.435 31.48 314.875 35C318.395 38.44 321.115 42.56 323.035 47.36C324.955 52.08 325.915 57.28 325.915 62.96C325.915 68.64 324.955 73.88 323.035 78.68C321.115 83.4 318.395 87.52 314.875 91.04C311.435 94.48 307.275 97.16 302.395 99.08C297.515 101 292.115 101.96 286.195 101.96C280.275 101.96 274.875 101 269.995 99.08C265.115 97.16 260.915 94.48 257.395 91.04C253.955 87.52 251.275 83.4 249.355 78.68C247.435 73.88 246.475 68.64 246.475 62.96C246.475 57.28 247.435 52.08 249.355 47.36C251.275 42.56 253.955 38.44 257.395 35C260.915 31.48 265.115 28.76 269.995 26.84C274.875 24.92 280.275 23.96 286.195 23.96Z" fill="white"/>
</svg>
